<svg width="58" height="40" viewBox="0 0 58 40" fill="none" xmlns="http://www.w3.org/2000/svg">
<path d="M25.7516 27.4333H21.8901L24.3054 13.4326H28.1667L25.7516 27.4333Z" fill="#303965"/>
<path d="M39.7499 13.7748C38.9882 13.4915 37.7802 13.1787 36.2865 13.1787C32.4731 13.1787 29.7878 15.0851 29.7713 17.8106C29.7396 19.8215 31.6939 20.9384 33.1556 21.6089C34.6495 22.2941 35.1574 22.7413 35.1574 23.352C35.1422 24.29 33.9502 24.7223 32.8384 24.7223C31.2967 24.7223 30.4707 24.4994 29.2153 23.9776L28.7069 23.7539L28.1665 26.8967C29.0722 27.2835 30.7408 27.6268 32.4731 27.6419C36.5249 27.6419 39.1627 25.765 39.1939 22.8605C39.2093 21.2667 38.1774 20.0454 35.9526 19.0475C34.602 18.4069 33.7749 17.9749 33.7749 17.3195C33.7908 16.7236 34.4745 16.1133 35.9991 16.1133C37.2544 16.0834 38.1768 16.3663 38.8755 16.6494L39.2247 16.7981L39.7499 13.7748Z" fill="#303965"/>
<path fill-rule="evenodd" clip-rule="evenodd" d="M46.6618 13.4326H49.6486L52.7639 27.4331H49.1885C49.1885 27.4331 48.8386 25.8245 48.7278 25.3329H43.7699C43.6266 25.7051 42.9595 27.4331 42.9595 27.4331H38.9078L44.6435 14.5943C45.0409 13.6856 45.7407 13.4326 46.6618 13.4326ZM46.4238 18.5561C46.4238 18.5561 45.2001 21.669 44.8821 22.4734H48.0918C47.933 21.7734 47.2017 18.4221 47.2017 18.4221L46.9319 17.2157C46.8182 17.5263 46.6539 17.9534 46.543 18.2415C46.4679 18.4368 46.4173 18.5682 46.4238 18.5561Z" fill="#303965"/>
<path fill-rule="evenodd" clip-rule="evenodd" d="M5.1589 13.4326H11.3716C12.2138 13.4621 12.8971 13.7153 13.1194 14.6095L14.4696 21.0423C14.4697 21.0427 14.4699 21.0431 14.47 21.0435L14.8832 22.9798L18.6649 13.4326H22.7481L16.6785 27.4185H12.5951L9.15337 15.2531C7.96587 14.6022 6.6106 14.0788 5.09534 13.7155L5.1589 13.4326Z" fill="#303965"/>
</svg>
