<svg width="48" height="49" viewBox="0 0 48 49" fill="none" xmlns="http://www.w3.org/2000/svg">
<path d="M20 21.8334H10.6667C10.3131 21.8334 9.97392 21.6929 9.72387 21.4429C9.47382 21.1928 9.33334 20.8537 9.33334 20.5V11.1667C9.33334 10.8131 9.47382 10.4739 9.72387 10.2239C9.97392 9.97385 10.3131 9.83337 10.6667 9.83337H20C20.3536 9.83337 20.6928 9.97385 20.9428 10.2239C21.1929 10.4739 21.3333 10.8131 21.3333 11.1667V20.5C21.3333 20.8537 21.1929 21.1928 20.9428 21.4429C20.6928 21.6929 20.3536 21.8334 20 21.8334Z" fill="#F3B411"/>
<path d="M20 39.1667H10.6667C10.3131 39.1667 9.97392 39.0263 9.72387 38.7762C9.47382 38.5262 9.33334 38.187 9.33334 37.8334V28.5001C9.33334 28.1465 9.47382 27.8073 9.72387 27.5573C9.97392 27.3072 10.3131 27.1667 10.6667 27.1667H20C20.3536 27.1667 20.6928 27.3072 20.9428 27.5573C21.1929 27.8073 21.3333 28.1465 21.3333 28.5001V37.8334C21.3333 38.187 21.1929 38.5262 20.9428 38.7762C20.6928 39.0263 20.3536 39.1667 20 39.1667Z" fill="#F3B411"/>
<path d="M25.3333 11.1667H38.6667V13.8334H25.3333V11.1667Z" fill="#54C1FF"/>
<path d="M38.6667 28.5H25.3333V31.1667H38.6667V28.5Z" fill="#54C1FF"/>
<path d="M38.6667 35.1667H25.3333V37.8334H38.6667V35.1667Z" fill="#C4B5FD"/>
<path d="M38.6667 17.8334H25.3333V20.5H38.6667V17.8334Z" fill="#C4B5FD"/>
</svg>
